<?xml version="1.0" encoding="utf-8"?>
<!-- Generator: Adobe Illustrator 15.0.0, SVG Export Plug-In . SVG Version: 6.00 Build 0)  -->
<!DOCTYPE svg PUBLIC "-//W3C//DTD SVG 1.1//EN" "http://www.w3.org/Graphics/SVG/1.1/DTD/svg11.dtd">
<svg version="1.1" id="Layer_1" xmlns="http://www.w3.org/2000/svg" xmlns:xlink="http://www.w3.org/1999/xlink" x="0px" y="0px"
	 width="130.21px" height="150px" viewBox="0 0 130.21 150" enable-background="new 0 0 130.21 150" xml:space="preserve">
<path fill="#FFF9E6" d="M103.94,121H58.35c-8.82,0-11.7-9.01-11.99-13.87l0-6.59c0-3.73,1.7-5.91,2.11-6.36L70,62.06V49.01
	c0-0.28-0.56-0.5-0.9-0.71c-1.77-1.09-2.76-2.07-2.76-6.42c0-3.66,3.04-5.84,8.08-5.84c0.59,0,0.97,0.03,0.97,0.03l11.52,0
	c0.12-0.01,0.41-0.03,0.81-0.03c4.48,0,7.15,2.18,7.15,5.84c0,4.68-1.28,5.51-3.55,6.58c-0.41,0.19-1.33,0.4-1.33,0.67v12.93
	l21.71,32.16c0.41,0.45,2.29,2.67,2.29,6.4v6.62c0,0.2,0.59,7.02-3.12,11.1C109.17,120.21,106.81,121,103.94,121z M74.45,38
	c-2.26,0-6.04,0.52-6.04,3.86c0,3.55,0.67,3.98,1.89,4.73c0.5,0.31,0.92,0.67,1.53,1.23l0.17,0.3v14.55L49.78,95.56
	c-0.07,0.07-1.78,1.82-1.78,5.06v6.62c0,0.44,1.21,11.76,10.35,11.76h45.59c2.28,0,4.11-0.57,5.42-2c3.12-3.42,2.57-9.69,2.57-9.75
	l0-6.67c0-3.29-1.73-5.02-1.75-5.04l-0.12-0.14L88,62.67V48l0.46-0.29c0.76-0.47,1.42-0.78,2.01-1.06c1.75-0.82,2.4-1.13,2.4-4.77
	c0-3.34-3.23-3.84-5.15-3.84c-0.38,0-0.63-0.01-0.66-0.01L86.97,38H75.32C75.21,38,74.91,38,74.45,38z"/>
<g>
	<path fill="#FFF9E6" d="M58,45H19c-0.55,0-1-0.45-1-1s0.45-1,1-1h39c0.55,0,1,0.45,1,1S58.55,45,58,45z"/>
	<path fill="#FFF9E6" d="M58,67H19c-0.55,0-1-0.45-1-1s0.45-1,1-1h39c0.55,0,1,0.45,1,1S58.55,67,58,67z"/>
	<path fill="#FFF9E6" d="M41,90H19c-0.55,0-1-0.45-1-1s0.45-1,1-1h22c0.55,0,1,0.45,1,1S41.55,90,41,90z"/>
	<path fill="#FFF9E6" d="M36,112H19c-0.55,0-1-0.45-1-1s0.45-1,1-1h17c0.55,0,1,0.45,1,1S36.55,112,36,112z"/>
</g>
<path fill="#FFF9E6" d="M117.51,150H12.93C5.93,150,0,144.6,0,138.07V11.97C0,5.44,5.93,0,12.93,0H106v21.21
	c0,1.97,1.88,3.79,3.85,3.79H130v113.07C130,144.6,124.51,150,117.51,150z M12.93,2C7.03,2,2,6.54,2,11.97v126.1
	C2,143.5,7.03,148,12.93,148h104.58c5.9,0,10.49-4.5,10.49-9.93V27h-18.15c-3.07,0-5.85-2.73-5.85-5.79V2H12.93z"/>
<path fill="#FFF9E6" d="M129.21,26.08c-0.26,0-0.52-0.1-0.71-0.3L104.95,1.83c-0.39-0.39-0.38-1.03,0.01-1.41
	c0.39-0.39,1.03-0.38,1.41,0.01l23.54,23.96c0.39,0.39,0.38,1.03-0.01,1.41C129.71,25.99,129.46,26.08,129.21,26.08z"/>
</svg>
